<svg width="100%" height="100%" viewBox="0 0 300 66" version="1.1" xmlns="http://www.w3.org/2000/svg" xmlns:xlink="http://www.w3.org/1999/xlink" xml:space="preserve" xmlns:serif="http://www.serif.com/" style="fill-rule:evenodd;clip-rule:evenodd;stroke-linejoin:round;stroke-miterlimit:2;">
    <style>path {fill:#D9BD97;}</style>
    <g>
        <g transform="matrix(0.985568,0,0,0.985568,-247.082,-248.265)">
            <path d="M511.4,307.2C511.4,312.1 507.4,316.1 502.5,316.1C497.6,316.1 493.6,312.1 493.6,307.2C493.6,302.3 497.6,298.3 502.5,298.3C507.4,298.3 511.4,302.3 511.4,307.2Z" style="fill-rule:nonzero;"></path>
            <path d="M530.1,307.2C530.1,312.1 526.1,316.1 521.2,316.1C516.3,316.1 512.3,312.1 512.3,307.2C512.3,302.3 516.3,298.3 521.2,298.3C526.1,298.3 530.1,302.3 530.1,307.2Z" style="fill-opacity:0.8;fill-rule:nonzero;"></path>
            <path d="M548.8,307.2C548.8,312.1 544.8,316.1 539.9,316.1C535,316.1 531,312.1 531,307.2C531,302.3 535,298.3 539.9,298.3C544.8,298.3 548.8,302.3 548.8,307.2Z" style="fill-rule:nonzero;"></path>
            <path d="M511.4,287.9C511.4,292.8 507.4,296.8 502.5,296.8C497.6,296.8 493.6,292.8 493.6,287.9C493.6,283 497.6,279 502.5,279C507.4,279 511.4,283 511.4,287.9Z" style="fill-opacity:0.8;fill-rule:nonzero;"></path>
            <path d="M530.1,287.9C530.1,292.8 526.1,296.8 521.2,296.8C516.3,296.8 512.3,292.8 512.3,287.9C512.3,283 516.3,279 521.2,279C526.1,279 530.1,283 530.1,287.9Z" style="fill-opacity:0.8;fill-rule:nonzero;"></path>
            <path d="M548.8,287.9C548.8,292.8 544.8,296.8 539.9,296.8C535,296.8 531,292.8 531,287.9C531,283 535,279 539.9,279C544.8,279 548.8,283 548.8,287.9Z" style="fill-opacity:0.5;fill-rule:nonzero;"></path>
            <path d="M511.4,265.9C511.4,270.8 507.4,274.8 502.5,274.8C497.6,274.8 493.6,270.8 493.6,265.9C493.6,261 497.6,257 502.5,257C507.4,257 511.4,261 511.4,265.9Z" style="fill-opacity:0.5;fill-rule:nonzero;"></path>
            <path d="M532.2,268.6C532.2,273.5 528.2,277.5 523.3,277.5C518.4,277.5 514.4,273.5 514.4,268.6C514.4,263.7 518.4,259.7 523.3,259.7C528.3,259.7 532.2,263.7 532.2,268.6Z" style="fill-opacity:0.3;fill-rule:nonzero;"></path>
            <path d="M555,262.2C555,267.1 551,271.1 546.1,271.1C541.2,271.1 537.2,267.1 537.2,262.2C537.2,257.3 541.2,253.3 546.1,253.3C551.1,253.4 555,257.3 555,262.2Z" style="fill-opacity:0.3;fill-rule:nonzero;"></path>
        </g>
        <g transform="matrix(0.985568,0,0,0.985568,-247.082,-248.265)">
            <path d="M374.5,304.2L374.5,309.7C374.5,310.6 374.5,311.6 373.9,312.3C373.3,313.1 372.2,313.5 371.1,313.5C370,313.5 369,313.1 368.3,312.3C367.7,311.5 367.7,310.6 367.7,309.7L367.7,304.2L368.6,304.2L368.6,309.4C368.6,311.2 368.8,312.8 371,312.8C373.2,312.8 373.4,311.2 373.4,309.4L373.4,304.2L374.5,304.2Z" style="fill-rule:nonzero;"></path>
            <path d="M378.4,305.4C378.8,304.6 379.5,304 380.4,304C380.8,304 381.1,304.1 381.4,304.2L380.9,305C380.7,304.9 380.5,304.8 380.3,304.8C378.3,304.8 378.4,307.3 378.4,308.7L378.4,313.4L377.5,313.4L377.5,304.2L378.4,304.2L378.4,305.4Z" style="fill-rule:nonzero;"></path>
            <path d="M383,296.9L383.9,296.9L383.9,305.7C384.7,304.5 386,303.9 387.4,303.9C390.2,303.9 391.9,305.9 391.9,308.6C391.9,311.3 390.1,313.5 387.4,313.5C386,313.5 384.6,312.8 383.9,311.6L383.9,313.2L383,313.2L383,296.9ZM391.1,308.7C391.1,306.7 389.6,304.8 387.5,304.8C385.2,304.8 383.8,306.5 383.8,308.7C383.8,310.8 385.2,312.7 387.4,312.7C389.7,312.8 391.1,310.8 391.1,308.7Z" style="fill-rule:nonzero;"></path>
            <path d="M402.2,313.4L401.3,313.4L401.3,311.8C400.6,313 399.2,313.7 397.8,313.7C395,313.7 393.3,311.5 393.3,308.8C393.3,306.1 395,304.1 397.8,304.1C399.2,304.1 400.6,304.7 401.3,305.9L401.3,304.3L402.2,304.3L402.2,313.4ZM394.2,308.7C394.2,310.8 395.6,312.7 397.8,312.7C400.2,312.7 401.4,310.8 401.4,308.6C401.4,306.5 399.9,304.8 397.7,304.8C395.6,304.8 394.2,306.7 394.2,308.7Z" style="fill-rule:nonzero;"></path>
            <path d="M406.2,305.6C406.8,304.6 407.8,304 409,304C411.4,304 412,305.5 412,307.9L412,313.5L411.1,313.5L411.1,307.9C411.1,306.3 410.9,304.9 408.9,304.9C406.6,304.9 406.2,307 406.2,308.9L406.2,313.4L405.3,313.4L405.3,304.2L406.2,304.2L406.2,305.6Z" style="fill-rule:nonzero;"></path>
            <path d="M428.5,311.7C427.8,312.9 426.3,313.6 424.9,313.6C422.1,313.6 420.4,311.4 420.4,308.7C420.4,306 422.1,304 424.9,304C426.3,304 427.7,304.6 428.4,305.8L428.4,297L429.3,297L429.3,313.4L428.4,313.4L428.5,311.7ZM428.5,308.6C428.5,306.5 427,304.8 424.8,304.8C422.7,304.8 421.2,306.7 421.2,308.7C421.2,310.8 422.6,312.7 424.8,312.7C427.2,312.8 428.5,310.8 428.5,308.6Z" style="fill-rule:nonzero;"></path>
            <path d="M440.5,313.4L439.6,313.4L439.6,311.8C438.9,313 437.5,313.7 436.1,313.7C433.3,313.7 431.6,311.5 431.6,308.8C431.6,306.1 433.3,304.1 436.1,304.1C437.5,304.1 438.9,304.7 439.6,305.9L439.6,304.3L440.5,304.3L440.5,313.4ZM432.4,308.7C432.4,310.8 433.8,312.7 436,312.7C438.4,312.7 439.6,310.8 439.6,308.6C439.6,306.5 438.1,304.8 435.9,304.8C433.9,304.8 432.4,306.7 432.4,308.7Z" style="fill-rule:nonzero;"></path>
            <path d="M441.9,304.2L442.8,304.2L446.7,312.5L450.2,304.2L451.1,304.2L444.9,318.8L444,318.8L446.2,313.6L441.9,304.2Z" style="fill-rule:nonzero;"></path>
            <path d="M462.8,305.9C462.5,305.3 461.9,304.9 461.2,304.9C460.4,304.9 459.6,305.5 459.6,306.3C459.6,308.5 464.1,307.4 464.1,310.8C464.1,312.5 462.8,313.7 461.1,313.7C459.6,313.7 458.3,312.8 457.9,311.3L458.8,311C459.1,312.1 459.9,312.9 461.1,312.9C462.3,312.9 463.2,312 463.2,310.8C463.2,309.7 462.3,309.3 461.4,309C460.1,308.5 458.7,308 458.7,306.5C458.7,305.1 459.9,304.2 461.2,304.2C462.1,304.2 463.2,304.8 463.6,305.7L462.8,305.9Z" style="fill-rule:nonzero;"></path>
            <path d="M467.3,305.8C468,304.6 469.5,303.9 470.9,303.9C473.7,303.9 475.4,306.1 475.4,308.8C475.4,311.5 473.7,313.5 470.9,313.5C469.5,313.5 468.1,312.9 467.4,311.7L467.4,318.7L466.5,318.7L466.5,304.1L467.4,304.1L467.3,305.8ZM467.2,309C467.2,311.1 468.7,312.8 470.9,312.8C473,312.8 474.5,311 474.5,308.9C474.5,306.8 473.1,304.8 470.9,304.8C468.5,304.8 467.2,306.8 467.2,309Z" style="fill-rule:nonzero;"></path>
            <path d="M485.6,313.4L484.7,313.4L484.7,311.8C484,313 482.6,313.7 481.2,313.7C478.4,313.7 476.7,311.5 476.7,308.8C476.7,306.1 478.4,304.1 481.2,304.1C482.6,304.1 484,304.7 484.7,305.9L484.7,304.3L485.6,304.3L485.6,313.4ZM477.6,308.7C477.6,310.8 479,312.7 481.2,312.7C483.6,312.7 484.8,310.8 484.8,308.6C484.8,306.5 483.3,304.8 481.1,304.8C479,304.8 477.6,306.7 477.6,308.7Z" style="fill-rule:nonzero;"></path>
        </g>
        <g transform="matrix(0.985568,0,0,0.985568,-247.082,-248.265)">
            <path d="M271.3,290.3L269.2,290.3L269.2,286.5L269.1,286.5C267.6,289.2 264.2,290.7 261.1,290.7C254.7,290.7 250.7,285.7 250.7,279.5C250.7,273.3 254.7,268.6 261,268.6C264.2,268.6 267.4,270.1 269.1,272.7L269.2,272.7L269.2,269L271.3,269L271.3,290.3ZM252.7,279.6C252.7,284.5 255.9,288.8 261,288.8C266.4,288.8 269.3,284.4 269.3,279.3C269.3,274.4 266,270.6 260.8,270.6C256.1,270.7 252.7,275.1 252.7,279.6Z" style="fill-rule:nonzero;"></path>
            <path d="M279.6,290.3L277.5,290.3L277.5,271.1L275.2,271.1L275.2,269.2L277.5,269.2L277.5,259.7C277.5,258.2 277.5,255.9 278.3,254.5C279.3,252.8 281.1,251.9 283,251.9C283.6,251.9 284.2,252 284.8,252.2L284.8,254.1C284.3,254 283.7,253.8 283.1,253.8C279.5,253.8 279.5,257.4 279.5,260L279.5,269L284.8,269L284.8,270.9L279.5,270.9L279.5,290.3L279.6,290.3Z" style="fill-rule:nonzero;"></path>
            <path d="M290,290.3L288,290.3L288,271.1L285.7,271.1L285.7,269.2L288,269.2L288,261.7L290.1,261.7L290.1,269.2L293.8,269.2L293.8,271.1L290.1,271.1L290,290.3Z" style="fill-rule:nonzero;"></path>
            <path d="M296.5,280C296.4,285.4 300.1,288.9 305,288.9C308.3,288.9 310.9,286.9 312.5,284.1L314.2,285.1C312.3,288.8 308.9,290.8 304.7,290.8C298.4,290.8 294.5,285.7 294.5,279.7C294.5,273.8 298.6,268.7 304.7,268.7C311.1,268.7 314.9,273.8 314.8,279.9L296.5,280ZM312.8,278C312.3,274.1 309.1,270.6 304.8,270.6C300.5,270.6 296.9,274 296.6,278L312.8,278Z" style="fill-rule:nonzero;"></path>
            <path d="M321.1,272C322,270.1 323.5,268.8 325.8,268.8C326.6,268.8 327.3,269 328,269.3L326.9,271.1C326.4,270.8 326,270.7 325.4,270.7C320.8,270.7 321.1,276.5 321.1,279.6L321.1,290.4L319,290.4L319,269.3L321.1,269.3L321.1,272Z" style="fill-rule:nonzero;"></path>
            <path d="M346.7,290.3L344.6,290.3L344.6,271.1L342.3,271.1L342.3,269.2L344.6,269.2L344.6,261.7L346.7,261.7L346.7,269.2L350.4,269.2L350.4,271.1L346.7,271.1L346.7,290.3Z" style="fill-rule:nonzero;"></path>
            <path d="M355.3,252.6L355.3,272.5L355.4,272.5C356.6,270.2 358.9,268.7 361.7,268.7C367.1,268.7 368.7,272.1 368.7,277.5L368.7,290.3L366.6,290.3L366.6,277.5C366.6,273.7 366.1,270.6 361.5,270.6C356.2,270.6 355.3,275.5 355.3,279.8L355.3,290.2L353.2,290.2L353.2,252.5L355.3,252.6Z" style="fill-rule:nonzero;"></path>
            <path d="M374.8,280C374.7,285.4 378.4,288.9 383.3,288.9C386.6,288.9 389.2,286.9 390.8,284.1L392.5,285.1C390.6,288.8 387.2,290.8 383,290.8C376.7,290.8 372.8,285.7 372.8,279.7C372.8,273.8 376.9,268.7 383,268.7C389.4,268.7 393.2,273.8 393.1,279.9L374.8,280ZM391.1,278C390.6,274.1 387.4,270.6 383.1,270.6C378.8,270.6 375.2,274 374.9,278L391.1,278Z" style="fill-rule:nonzero;"></path>
            <path d="M412.8,272C413.7,270.1 415.2,268.8 417.5,268.8C418.3,268.8 419,269 419.7,269.3L418.6,271.1C418.1,270.8 417.7,270.7 417.1,270.7C412.5,270.7 412.8,276.5 412.8,279.6L412.8,290.4L410.7,290.4L410.7,269.3L412.8,269.3L412.8,272Z" style="fill-rule:nonzero;"></path>
            <path d="M441.3,290.3L439.2,290.3L439.2,286.5L439.1,286.5C437.6,289.2 434.2,290.7 431.1,290.7C424.7,290.7 420.7,285.7 420.7,279.5C420.7,273.3 424.7,268.6 431,268.6C434.2,268.6 437.4,270.1 439.1,272.7L439.2,272.7L439.2,269L441.3,269L441.3,290.3ZM422.7,279.6C422.7,284.5 425.9,288.8 431,288.8C436.4,288.8 439.3,284.4 439.3,279.3C439.3,274.4 436,270.6 430.8,270.6C426.1,270.7 422.7,275.1 422.7,279.6Z" style="fill-rule:nonzero;"></path>
            <path d="M451.3,262.2C451.3,263.2 450.5,264.1 449.4,264.1C448.3,264.1 447.5,263.3 447.5,262.2C447.5,261.2 448.3,260.3 449.4,260.3C450.5,260.3 451.3,261.2 451.3,262.2ZM450.4,290.3L448.3,290.3L448.3,269.2L450.4,269.2L450.4,290.3Z" style="fill-rule:nonzero;"></path>
            <path d="M459.5,272.5C460.8,270.2 463.1,268.7 465.9,268.7C471.3,268.7 472.9,272.1 472.9,277.5L472.9,290.3L470.8,290.3L470.8,277.5C470.8,273.7 470.3,270.6 465.7,270.6C460.4,270.6 459.5,275.5 459.5,279.8L459.5,290.2L457.4,290.2L457.4,269.1L459.5,269.1L459.5,272.5Z" style="fill-rule:nonzero;"></path>
        </g>
    </g>
</svg>